<svg width="30" height="30" viewBox="0 0 30 30" fill="none" xmlns="http://www.w3.org/2000/svg">
<path fill-rule="evenodd" clip-rule="evenodd" d="M20.032 4.51797C20.032 2.09547 17.6385 0.480469 15.7684 0.480469C14.4667 0.480469 14.3649 1.46885 14.1647 3.41977C14.0759 4.27572 13.9693 5.31578 13.7335 6.53672C13.1101 9.76995 10.9557 13.9011 8.89494 15.1366V24.7055C8.88848 28.3392 10.0997 29.5505 15.3485 29.5505H21.4419C24.9561 29.5505 25.8072 27.2362 26.1238 26.3786L26.1448 26.3205C26.3289 25.8263 26.7229 25.4371 27.1751 24.9962C27.6758 24.502 28.2475 23.9416 28.6722 23.0905C29.1745 22.0843 29.1083 21.1896 29.0485 20.3934C29.0114 19.9105 28.9775 19.4648 29.076 19.053C29.1793 18.6169 29.3118 18.2858 29.4394 17.9693C29.6703 17.3944 29.8835 16.8614 29.8835 15.823C29.8835 13.4005 28.6755 11.7887 26.1448 11.7887H19.386C19.386 11.7887 20.032 6.94047 20.032 4.51797ZM3.23598 13.4005C2.59349 13.4005 1.97732 13.6557 1.52301 14.11C1.0687 14.5643 0.813477 15.1805 0.813477 15.823V27.128C0.813477 27.7705 1.0687 28.3866 1.52301 28.8409C1.97732 29.2952 2.59349 29.5505 3.23598 29.5505C3.87846 29.5505 4.49464 29.2952 4.94894 28.8409C5.40325 28.3866 5.65848 27.7705 5.65848 27.128V15.823C5.65848 15.1805 5.40325 14.5643 4.94894 14.11C4.49464 13.6557 3.87846 13.4005 3.23598 13.4005Z" fill="black"/>
</svg>
