<svg width="30" height="30" viewBox="0 0 30 30" fill="none" xmlns="http://www.w3.org/2000/svg">
<path fill-rule="evenodd" clip-rule="evenodd" d="M10.5579 25.7418C10.5579 28.1643 12.9513 29.7793 14.8215 29.7793C16.1232 29.7793 16.2249 28.7909 16.4252 26.84C16.514 25.984 16.6206 24.944 16.8564 23.723C17.4798 20.4898 19.6342 16.3586 21.6949 15.1232L21.6949 5.5543C21.7014 1.92055 20.4901 0.709297 15.2414 0.709297H9.14797C5.63373 0.709297 4.78263 3.02359 4.46609 3.88116L4.44509 3.9393C4.26098 4.43349 3.86692 4.8227 3.41472 5.2636C2.91407 5.75779 2.34236 6.31819 1.91762 7.1693C1.41535 8.17544 1.48157 9.07015 1.54132 9.86635C1.57847 10.3492 1.61238 10.795 1.51387 11.2068C1.41051 11.6428 1.27808 11.9739 1.15049 12.2905C0.919546 12.8654 0.706367 13.3984 0.706367 14.4368C0.706367 16.8593 1.91439 18.4711 4.44509 18.4711L11.2039 18.4711C11.2039 18.4711 10.5579 23.3193 10.5579 25.7418ZM27.3539 16.8593C27.9964 16.8593 28.6125 16.6041 29.0668 16.1498C29.5211 15.6955 29.7764 15.0793 29.7764 14.4368V3.1318C29.7764 2.48931 29.5211 1.87314 29.0668 1.41883C28.6125 0.964525 27.9964 0.709297 27.3539 0.709297C26.7114 0.709297 26.0952 0.964525 25.6409 1.41883C25.1866 1.87314 24.9314 2.48931 24.9314 3.1318L24.9314 14.4368C24.9314 15.0793 25.1866 15.6955 25.6409 16.1498C26.0952 16.6041 26.7114 16.8593 27.3539 16.8593Z" fill="black"/>
</svg>
