<svg width="33" height="33" viewBox="0 0 33 33" fill="none" xmlns="http://www.w3.org/2000/svg">
<path fill-rule="evenodd" clip-rule="evenodd" d="M28.1666 0.458984C30.5829 0.458984 32.5416 2.41774 32.5416 4.83398V28.1673C32.5416 30.5836 30.5829 32.5423 28.1666 32.5423H4.83325C2.41701 32.5423 0.458252 30.5836 0.458252 28.1673V4.83398C0.458252 2.41774 2.41701 0.458984 4.83325 0.458984H28.1666ZM28.1666 3.37565C28.972 3.37565 29.6249 4.02858 29.6249 4.83398V28.1673C29.6249 28.9728 28.972 29.6256 28.1666 29.6256H20.8749V19.4172H23.9027C24.5304 19.4172 25.0876 19.0155 25.2862 18.42L25.9323 16.4818C26.1684 15.7735 25.6412 15.0422 24.8947 15.0422H20.8749V12.1255C20.8749 11.3964 21.6041 10.6672 22.3333 10.6672H25.2499C26.0554 10.6672 26.7083 10.0143 26.7083 9.20887V8.20847C26.7083 7.73739 26.4074 7.31505 25.9518 7.19484C24.0402 6.69037 22.3333 6.69037 22.3333 6.69037C18.6874 6.69037 16.4999 9.20887 16.4999 11.3964V15.0422H13.5833C12.7778 15.0422 12.1249 15.6951 12.1249 16.5005V17.9588C12.1249 18.7643 12.7778 19.4172 13.5833 19.4172H16.4999V29.6256H4.83325C4.02784 29.6256 3.37492 28.9728 3.37492 28.1673V4.83398C3.37492 4.02858 4.02784 3.37565 4.83325 3.37565H28.1666Z" fill="#BCBCBC"/>
</svg>
