<svg width="28" height="28" viewBox="0 0 28 28" fill="none" xmlns="http://www.w3.org/2000/svg">
<path d="M26.9333 11.9496L26.7833 11.3662H14.3833V16.6329H21.7999C21.3861 18.2401 20.4453 19.6619 19.1278 20.6711C17.8104 21.6802 16.1926 22.2184 14.5333 22.1996C12.3679 22.1817 10.2875 21.3554 8.69992 19.8829C7.91951 19.1137 7.29847 18.1981 6.87234 17.1886C6.44622 16.1791 6.22339 15.0954 6.21661 13.9996C6.24179 11.7987 7.11314 9.69196 8.64994 8.11626C10.2151 6.63352 12.2939 5.81509 14.4499 5.83292C16.2964 5.84714 18.0743 6.53457 19.4499 7.76625L23.1166 3.99959C20.6999 1.84352 17.5719 0.656388 14.3333 0.666255C12.5516 0.655672 10.7854 0.996105 9.13539 1.66814C7.48536 2.34016 5.98384 3.3306 4.71661 4.58292C2.30609 7.08672 0.947056 10.4193 0.919139 13.8947C0.891239 17.3702 2.19661 20.7241 4.56661 23.2662C5.87967 24.5744 7.44031 25.6079 9.15729 26.3061C10.8743 27.0044 12.7131 27.3534 14.5666 27.3329C16.2473 27.3454 17.9131 27.0166 19.4631 26.3662C21.0129 25.7159 22.4146 24.7577 23.5833 23.5496C25.8764 21.0281 27.1169 17.7241 27.0499 14.3162C27.0679 13.5256 27.0289 12.7347 26.9333 11.9496Z" fill="#BCBCBC"/>
</svg>
