<svg width="128" height="33" viewBox="0 0 128 33" fill="none" xmlns="http://www.w3.org/2000/svg">
<path d="M15.444 16.334H18.765V26H15.876V24.893C14.526 25.811 12.834 26.27 10.8 26.27C9.054 26.27 7.452 25.892 5.994 25.136C4.536 24.38 3.366 23.282 2.484 21.842C1.62 20.402 1.188 18.683 1.188 16.685C1.188 14.795 1.629 13.103 2.511 11.609C3.393 10.097 4.608 8.927 6.156 8.099C7.722 7.253 9.477 6.83 11.421 6.83C13.005 6.83 14.445 7.091 15.741 7.613C17.037 8.135 18.126 8.9 19.008 9.908L16.794 12.068C15.354 10.628 13.617 9.908 11.583 9.908C10.251 9.908 9.063 10.196 8.019 10.772C6.993 11.33 6.183 12.122 5.589 13.148C5.013 14.174 4.725 15.344 4.725 16.658C4.725 18.044 5.013 19.241 5.589 20.249C6.183 21.239 6.966 21.995 7.938 22.517C8.91 23.021 9.972 23.273 11.124 23.273C11.934 23.273 12.708 23.147 13.446 22.895C14.202 22.643 14.868 22.274 15.444 21.788V16.334ZM34.3294 11.582V26H31.1164V24.164C30.5764 24.812 29.9014 25.316 29.0914 25.676C28.2814 26.018 27.4084 26.189 26.4724 26.189C24.5464 26.189 23.0254 25.658 21.9094 24.596C20.8114 23.516 20.2624 21.923 20.2624 19.817V11.582H23.6374V19.358C23.6374 20.654 23.9254 21.626 24.5014 22.274C25.0954 22.904 25.9324 23.219 27.0124 23.219C28.2184 23.219 29.1724 22.85 29.8744 22.112C30.5944 21.356 30.9544 20.276 30.9544 18.872V11.582H34.3294ZM50.1424 11.582V26H46.9294V24.137C46.3714 24.821 45.6784 25.334 44.8504 25.676C44.0404 26.018 43.1404 26.189 42.1504 26.189C40.7464 26.189 39.4864 25.883 38.3704 25.271C37.2724 24.659 36.4084 23.795 35.7784 22.679C35.1664 21.563 34.8604 20.267 34.8604 18.791C34.8604 17.315 35.1664 16.028 35.7784 14.93C36.4084 13.814 37.2724 12.95 38.3704 12.338C39.4864 11.726 40.7464 11.42 42.1504 11.42C43.0864 11.42 43.9414 11.582 44.7154 11.906C45.5074 12.23 46.1914 12.707 46.7674 13.337V11.582H50.1424ZM42.5284 23.3C43.7704 23.3 44.7964 22.886 45.6064 22.058C46.4164 21.23 46.8214 20.141 46.8214 18.791C46.8214 17.441 46.4164 16.352 45.6064 15.524C44.7964 14.696 43.7704 14.282 42.5284 14.282C41.2864 14.282 40.2604 14.696 39.4504 15.524C38.6584 16.352 38.2624 17.441 38.2624 18.791C38.2624 20.141 38.6584 21.23 39.4504 22.058C40.2604 22.886 41.2864 23.3 42.5284 23.3ZM55.0711 13.688C56.0431 12.176 57.7531 11.42 60.2011 11.42V14.633C59.9131 14.579 59.6521 14.552 59.4181 14.552C58.1041 14.552 57.0781 14.939 56.3401 15.713C55.6021 16.469 55.2331 17.567 55.2331 19.007V26H51.8581V11.582H55.0711V13.688ZM74.3534 5.966V26H71.1134V24.137C70.5554 24.821 69.8624 25.334 69.0344 25.676C68.2244 26.018 67.3244 26.189 66.3344 26.189C64.9484 26.189 63.6974 25.883 62.5814 25.271C61.4834 24.659 60.6194 23.795 59.9894 22.679C59.3594 21.545 59.0444 20.249 59.0444 18.791C59.0444 17.333 59.3594 16.046 59.9894 14.93C60.6194 13.814 61.4834 12.95 62.5814 12.338C63.6974 11.726 64.9484 11.42 66.3344 11.42C67.2884 11.42 68.1614 11.582 68.9534 11.906C69.7454 12.23 70.4204 12.716 70.9784 13.364V5.966H74.3534ZM66.7394 23.3C67.5494 23.3 68.2784 23.12 68.9264 22.76C69.5744 22.382 70.0874 21.851 70.4654 21.167C70.8434 20.483 71.0324 19.691 71.0324 18.791C71.0324 17.891 70.8434 17.099 70.4654 16.415C70.0874 15.731 69.5744 15.209 68.9264 14.849C68.2784 14.471 67.5494 14.282 66.7394 14.282C65.9294 14.282 65.2004 14.471 64.5524 14.849C63.9044 15.209 63.3914 15.731 63.0134 16.415C62.6354 17.099 62.4464 17.891 62.4464 18.791C62.4464 19.691 62.6354 20.483 63.0134 21.167C63.3914 21.851 63.9044 22.382 64.5524 22.76C65.2004 23.12 65.9294 23.3 66.7394 23.3ZM90.1625 11.582V26H86.9495V24.137C86.3915 24.821 85.6985 25.334 84.8705 25.676C84.0605 26.018 83.1605 26.189 82.1705 26.189C80.7665 26.189 79.5065 25.883 78.3905 25.271C77.2925 24.659 76.4285 23.795 75.7985 22.679C75.1865 21.563 74.8805 20.267 74.8805 18.791C74.8805 17.315 75.1865 16.028 75.7985 14.93C76.4285 13.814 77.2925 12.95 78.3905 12.338C79.5065 11.726 80.7665 11.42 82.1705 11.42C83.1065 11.42 83.9615 11.582 84.7355 11.906C85.5275 12.23 86.2115 12.707 86.7875 13.337V11.582H90.1625ZM82.5485 23.3C83.7905 23.3 84.8165 22.886 85.6265 22.058C86.4365 21.23 86.8415 20.141 86.8415 18.791C86.8415 17.441 86.4365 16.352 85.6265 15.524C84.8165 14.696 83.7905 14.282 82.5485 14.282C81.3065 14.282 80.2805 14.696 79.4705 15.524C78.6785 16.352 78.2825 17.441 78.2825 18.791C78.2825 20.141 78.6785 21.23 79.4705 22.058C80.2805 22.886 81.3065 23.3 82.5485 23.3ZM96.6303 26.189C95.1363 26.189 93.9663 25.784 93.1203 24.974C92.2923 24.146 91.8783 22.985 91.8783 21.491V5.966H95.2533V21.248C95.2533 22.688 95.9283 23.408 97.2783 23.408C97.7283 23.408 98.1333 23.318 98.4933 23.138L98.6553 25.838C98.0253 26.072 97.3503 26.189 96.6303 26.189ZM104.465 26.189C103.007 26.189 101.693 25.874 100.523 25.244C99.3529 24.614 98.4349 23.741 97.7689 22.625C97.1209 21.491 96.7969 20.213 96.7969 18.791C96.7969 17.369 97.1209 16.1 97.7689 14.984C98.4349 13.868 99.3529 12.995 100.523 12.365C101.693 11.735 103.007 11.42 104.465 11.42C105.941 11.42 107.264 11.735 108.434 12.365C109.604 12.995 110.513 13.868 111.161 14.984C111.827 16.1 112.16 17.369 112.16 18.791C112.16 20.213 111.827 21.491 111.161 22.625C110.513 23.741 109.604 24.614 108.434 25.244C107.264 25.874 105.941 26.189 104.465 26.189ZM104.465 23.3C105.707 23.3 106.733 22.886 107.543 22.058C108.353 21.23 108.758 20.141 108.758 18.791C108.758 17.441 108.353 16.352 107.543 15.524C106.733 14.696 105.707 14.282 104.465 14.282C103.223 14.282 102.197 14.696 101.387 15.524C100.595 16.352 100.199 17.441 100.199 18.791C100.199 20.141 100.595 21.23 101.387 22.058C102.197 22.886 103.223 23.3 104.465 23.3ZM119.167 26.189C117.709 26.189 116.395 25.874 115.225 25.244C114.055 24.614 113.137 23.741 112.471 22.625C111.823 21.491 111.499 20.213 111.499 18.791C111.499 17.369 111.823 16.1 112.471 14.984C113.137 13.868 114.055 12.995 115.225 12.365C116.395 11.735 117.709 11.42 119.167 11.42C120.643 11.42 121.966 11.735 123.136 12.365C124.306 12.995 125.215 13.868 125.863 14.984C126.529 16.1 126.862 17.369 126.862 18.791C126.862 20.213 126.529 21.491 125.863 22.625C125.215 23.741 124.306 24.614 123.136 25.244C121.966 25.874 120.643 26.189 119.167 26.189ZM119.167 23.3C120.409 23.3 121.435 22.886 122.245 22.058C123.055 21.23 123.46 20.141 123.46 18.791C123.46 17.441 123.055 16.352 122.245 15.524C121.435 14.696 120.409 14.282 119.167 14.282C117.925 14.282 116.899 14.696 116.089 15.524C115.297 16.352 114.901 17.441 114.901 18.791C114.901 20.141 115.297 21.23 116.089 22.058C116.899 22.886 117.925 23.3 119.167 23.3Z" fill="#FD7474"/>
<circle cx="106.5" cy="16.5" r="2.5" fill="#FD7474"/>
<circle cx="121.5" cy="16.5" r="2.5" fill="#FD7474"/>
</svg>
