<svg width="28" height="24" viewBox="0 0 28 24" fill="none" xmlns="http://www.w3.org/2000/svg">
<path fill-rule="evenodd" clip-rule="evenodd" d="M10.3592 3.5999C8.56309 3.5999 6.84051 4.1899 5.57044 5.2401C4.30038 6.29031 3.58687 7.71469 3.58687 9.1999C3.58687 10.6851 4.30038 12.1095 5.57044 13.1597C6.84051 14.2099 8.56309 14.7999 10.3592 14.7999C12.1554 14.7999 13.8779 14.2099 15.148 13.1597C16.4181 12.1095 17.1316 10.6851 17.1316 9.1999C17.1316 7.71469 16.4181 6.29031 15.148 5.2401C13.8779 4.1899 12.1554 3.5999 10.3592 3.5999ZM0.200684 9.1999C0.20048 7.87789 0.577638 6.5745 1.30148 5.39574C2.02533 4.21698 3.07542 3.19614 4.36636 2.41624C5.65729 1.63634 7.15262 1.1194 8.73072 0.907467C10.3088 0.695536 11.9251 0.794597 13.4482 1.19659C14.9713 1.59859 16.3581 2.29216 17.4959 3.22092C18.6337 4.14967 19.4903 5.28737 19.9961 6.54149C20.5018 7.79561 20.6425 9.13073 20.4066 10.4383C20.1707 11.7458 19.5649 12.9889 18.6384 14.0663L26.7941 20.8101C27.1025 21.0741 27.2731 21.4278 27.2693 21.7949C27.2654 22.1619 27.0874 22.5131 26.7734 22.7726C26.4595 23.0322 26.0349 23.1795 25.591 23.1826C25.147 23.1858 24.7194 23.0447 24.4 22.7897L16.2461 16.0473C14.7263 16.9409 12.9384 17.4713 11.0782 17.5805C9.21809 17.6896 7.3575 17.3733 5.70035 16.6661C4.0432 15.9589 2.65344 14.8881 1.68336 13.5712C0.713284 12.2542 0.200321 10.7419 0.200684 9.1999Z" fill="#FFFAEF"/>
</svg>
